<?xml version="1.0" standalone="no"?>
<!DOCTYPE svg PUBLIC "-//W3C//DTD SVG 20010904//EN"
 "http://www.w3.org/TR/2001/REC-SVG-20010904/DTD/svg10.dtd">
<svg version="1.0" xmlns="http://www.w3.org/2000/svg"
 width="2048.000000pt" height="2048.000000pt" viewBox="0 0 2048.000000 2048.000000"
 preserveAspectRatio="xMidYMid meet">

<g transform="translate(0.000000,2048.000000) scale(0.100000,-0.100000)"
fill="#000000" stroke="none">
<path d="M5943 12199 c-60 -23 -127 -86 -145 -135 l-12 -34 -298 0 -298 0 0
-1205 0 -1205 290 0 290 0 0 50 0 50 -240 0 -240 0 0 1105 0 1105 239 0 239 0
7 -38 c10 -63 61 -140 113 -173 62 -39 115 -52 183 -46 110 10 191 67 237 165
20 44 23 65 20 120 -5 80 -25 126 -81 181 -77 77 -198 101 -304 60z"/>
<path d="M7048 11216 c-73 -16 -145 -61 -183 -115 -27 -39 -30 -50 -30 -121 0
-71 3 -82 30 -121 39 -55 120 -100 242 -133 120 -33 169 -58 188 -96 46 -88
-17 -150 -152 -150 -77 1 -149 25 -226 79 -27 18 -50 31 -51 29 -1 -1 -19 -25
-40 -53 l-38 -50 34 -28 c112 -95 300 -133 452 -90 120 33 199 150 182 267
-16 107 -94 170 -277 221 -119 33 -169 61 -191 104 -32 64 15 123 110 137 56
8 155 -18 217 -57 25 -16 49 -29 53 -29 4 0 20 25 36 54 25 46 27 57 17 70
-22 26 -112 65 -186 81 -82 17 -111 17 -187 1z"/>
<path d="M11205 11223 c-74 -16 -124 -41 -166 -80 -85 -79 -101 -186 -43 -280
37 -59 97 -93 239 -134 165 -47 215 -79 215 -137 0 -71 -66 -116 -170 -115
-90 1 -140 21 -249 100 -22 16 -24 16 -33 -1 -5 -9 -24 -33 -41 -53 l-31 -36
38 -33 c21 -18 73 -47 115 -65 97 -41 248 -52 332 -25 74 25 126 63 157 115
23 38 27 58 27 116 -1 140 -52 188 -280 260 -77 25 -150 51 -162 60 -34 24
-48 77 -28 114 23 46 68 65 151 65 63 0 80 -4 150 -39 43 -22 82 -41 85 -43 9
-4 70 109 64 118 -3 4 -37 23 -77 43 -97 47 -215 68 -293 50z"/>
<path d="M5652 10788 l3 -433 303 -3 302 -2 0 65 0 65 -235 0 -235 0 3 368 2
367 -73 3 -72 3 2 -433z"/>
<path d="M6442 10788 l3 -433 68 -3 67 -3 0 436 0 435 -70 0 -70 0 2 -432z"/>
<path d="M7570 11155 l0 -64 138 -3 137 -3 2 -365 2 -365 71 -3 70 -3 0 371 0
370 140 0 140 0 0 65 0 65 -350 0 -350 0 0 -65z"/>
<path d="M8728 11212 l-288 -2 0 -430 0 -430 325 0 325 0 0 65 0 65 -255 0
-255 0 0 125 0 125 225 0 225 0 0 65 0 65 -220 0 -219 0 -6 33 c-3 17 -5 68
-3 112 l3 80 243 3 242 2 0 64 c0 62 0 63 -27 62 -16 -1 -157 -2 -315 -4z"/>
<path d="M9300 10795 c0 -234 -1 -428 -2 -432 -2 -5 30 -9 70 -11 l72 -3 0
301 c0 165 3 300 6 300 4 0 12 -6 18 -14 6 -8 111 -143 234 -300 l222 -286 55
0 55 0 0 123 c0 67 3 254 6 415 3 161 2 302 -1 313 -6 16 -16 19 -76 19 l-69
0 -2 -299 -3 -299 -99 132 c-55 72 -158 206 -230 298 l-131 167 -62 1 -63 0 0
-425z"/>
<path d="M11810 10786 l0 -437 73 3 c55 2 72 6 73 18 1 8 2 72 2 141 l2 127
148 4 c164 6 226 22 294 78 115 95 124 293 19 401 -79 81 -125 92 -388 97
l-223 4 0 -436z m445 282 c99 -52 118 -167 41 -244 -43 -43 -89 -54 -223 -54
l-113 0 0 161 0 162 133 -5 c93 -3 141 -9 162 -20z"/>
<path d="M12690 10785 l0 -435 319 0 319 0 6 31 c3 17 6 47 6 65 l0 34 -255 0
-255 0 0 125 0 125 225 0 225 0 0 65 0 65 -225 0 -225 0 0 115 0 115 250 0
251 0 -3 63 -3 62 -317 3 -318 2 0 -435z"/>
<path d="M13775 11123 c-25 -54 -78 -170 -117 -258 -39 -88 -104 -234 -144
-324 -41 -91 -74 -171 -74 -178 0 -11 16 -13 72 -11 l72 3 40 98 40 97 153 2
c84 1 183 3 219 3 l66 0 32 -80 c54 -132 46 -125 127 -125 71 0 71 0 65 25 -4
14 -64 157 -135 318 -71 161 -151 344 -178 407 l-50 115 -71 3 -71 3 -46 -98z
m125 -85 c0 -11 58 -149 136 -325 l14 -33 -164 0 -164 0 37 88 c112 258 141
313 141 270z"/>
<path d="M14490 10785 l0 -435 70 0 70 0 0 123 0 123 73 72 72 72 81 -103 c44
-56 111 -144 149 -194 l68 -93 84 0 c52 0 83 4 83 11 0 5 -81 117 -179 247
l-179 236 61 66 c34 37 110 119 170 182 59 64 107 118 107 122 0 3 -35 6 -78
6 l-78 0 -120 -122 c-66 -68 -161 -167 -211 -220 -51 -54 -94 -98 -95 -98 -2
0 -3 98 -3 217 l0 218 -72 3 -73 3 0 -436z"/>
<path d="M10508 10782 l-218 -2 0 -58 0 -57 219 -3 c120 -2 220 0 223 5 2 4 1
33 -2 63 l-5 55 -217 -3z"/>
</g>
</svg>
